<svg width="765" height="465" viewBox="0 0 765 465" fill="none" xmlns="http://www.w3.org/2000/svg">
<g filter="url(#filter0_d_1_163)">
<path d="M368.824 443.028C368.824 422.262 447.689 396.762 529.689 366.262C587.689 341.762 650.689 327.762 680.813 287C684.689 307.262 662.189 377.262 558.189 417.262C457.189 451.262 380.189 445.262 368.824 443.028Z" fill="url(#paint0_linear_1_163)" style="mix-blend-mode:multiply" shape-rendering="crispEdges"/>
<path d="M368.824 443.028C368.824 422.262 447.689 396.762 529.689 366.262C587.689 341.762 650.689 327.762 680.813 287C684.689 307.262 662.189 377.262 558.189 417.262C457.189 451.262 380.189 445.262 368.824 443.028Z" fill="#CEADFF" fill-opacity="0.14" shape-rendering="crispEdges"/>
</g>
<path d="M396.397 443.375C396.397 422.608 317.532 397.108 235.532 366.608C177.532 342.108 114.532 328.108 84.4075 287.346C80.5323 307.608 103.032 377.608 207.032 417.608C308.032 451.608 385.032 445.608 396.397 443.375Z" fill="url(#paint1_linear_1_163)" style="mix-blend-mode:multiply"/>
<path d="M396.397 443.375C396.397 422.608 317.532 397.108 235.532 366.608C177.532 342.108 114.532 328.108 84.4075 287.346C80.5323 307.608 103.032 377.608 207.032 417.608C308.032 451.608 385.032 445.608 396.397 443.375Z" fill="#CEADFF" fill-opacity="0.14"/>
<path d="M542.33 400.594C464.83 443.191 417.83 447.594 366.968 443.191C374.83 407.594 382.33 346.594 449.83 289.594C519.794 233.925 614.83 238.594 620.33 241.594C623.33 273.094 612.294 344.925 542.33 400.594Z" fill="url(#paint2_linear_1_163)" style="mix-blend-mode:multiply"/>
<path d="M542.33 400.594C464.83 443.191 417.83 447.594 366.968 443.191C374.83 407.594 382.33 346.594 449.83 289.594C519.794 233.925 614.83 238.594 620.33 241.594C623.33 273.094 612.294 344.925 542.33 400.594Z" fill="#CEADFF" fill-opacity="0.14"/>
<path d="M223.437 400.68C300.937 443.277 347.937 447.68 398.799 443.277C390.937 407.68 383.437 346.68 315.937 289.68C245.973 234.011 150.937 238.68 145.437 241.68C142.437 273.18 153.473 345.011 223.437 400.68Z" fill="url(#paint3_linear_1_163)" style="mix-blend-mode:multiply"/>
<path d="M223.437 400.68C300.937 443.277 347.937 447.68 398.799 443.277C390.937 407.68 383.437 346.68 315.937 289.68C245.973 234.011 150.937 238.68 145.437 241.68C142.437 273.18 153.473 345.011 223.437 400.68Z" fill="#CEADFF" fill-opacity="0.14"/>
<path d="M369.864 444.558C369.864 425.558 369.864 356.058 410.864 276.558C452.122 196.558 521.864 170.058 544.168 172.109C544.168 206.558 540.264 271.526 510.864 345.558C469.364 450.058 378.864 444.558 369.864 444.558Z" fill="url(#paint4_linear_1_163)" style="mix-blend-mode:multiply"/>
<path d="M369.864 444.558C369.864 425.558 369.864 356.058 410.864 276.558C452.122 196.558 521.864 170.058 544.168 172.109C544.168 206.558 540.264 271.526 510.864 345.558C469.364 450.058 378.864 444.558 369.864 444.558Z" fill="#CEADFF" fill-opacity="0.14"/>
<path d="M395.304 444.558C395.304 425.558 395.304 356.058 354.304 276.558C313.047 196.558 243.304 170.058 221 172.109C221 206.558 224.904 271.526 254.304 345.558C295.804 450.058 386.304 444.558 395.304 444.558Z" fill="url(#paint5_linear_1_163)" style="mix-blend-mode:multiply"/>
<path d="M395.304 444.558C395.304 425.558 395.304 356.058 354.304 276.558C313.047 196.558 243.304 170.058 221 172.109C221 206.558 224.904 271.526 254.304 345.558C295.804 450.058 386.304 444.558 395.304 444.558Z" fill="#CEADFF" fill-opacity="0.14"/>
<path d="M454.74 105.958C493.74 209.458 352.239 277.458 348.239 312.958C318.739 391.958 389.739 421.458 410.239 438.958C372.739 431.458 285.12 404.44 306.24 312.958C320.24 227.458 452.24 237.958 454.74 105.958ZM390.459 103.854C394.11 96.7435 434.082 84.8266 442.192 94.8447C455.192 104.845 447.192 148.345 434.192 168.345C451.192 104.845 432.692 117.345 405.192 127.345C405.19 127.345 405.188 127.345 405.186 127.346C405.188 127.674 405.192 128.007 405.192 128.345C401.192 148.345 386.692 167.345 371.192 174.345L371.012 174.595C366.854 180.166 340.575 205.837 333.192 205.345C330.692 203.345 333.692 193.345 336.192 185.845C339.618 179.482 340.171 174.558 345.351 168.726C345.195 167.62 345.141 166.336 345.192 164.845C345.847 145.856 360.692 102.344 384.692 103.388C386.82 103.48 388.736 103.628 390.459 103.854Z" fill="url(#paint6_linear_1_163)"/>
<defs>
<filter id="filter0_d_1_163" x="364.824" y="287" width="320.397" height="165.897" filterUnits="userSpaceOnUse" color-interpolation-filters="sRGB">
<feFlood flood-opacity="0" result="BackgroundImageFix"/>
<feColorMatrix in="SourceAlpha" type="matrix" values="0 0 0 0 0 0 0 0 0 0 0 0 0 0 0 0 0 0 127 0" result="hardAlpha"/>
<feOffset dy="4"/>
<feGaussianBlur stdDeviation="2"/>
<feComposite in2="hardAlpha" operator="out"/>
<feColorMatrix type="matrix" values="0 0 0 0 0 0 0 0 0 0 0 0 0 0 0 0 0 0 0.25 0"/>
<feBlend mode="normal" in2="BackgroundImageFix" result="effect1_dropShadow_1_163"/>
<feBlend mode="normal" in="SourceGraphic" in2="effect1_dropShadow_1_163" result="shape"/>
</filter>
<linearGradient id="paint0_linear_1_163" x1="553.038" y1="421.44" x2="520.525" y2="356.429" gradientUnits="userSpaceOnUse">
<stop offset="0.9999" stop-color="#FF93F5"/>
<stop offset="1" stop-color="#CEADFF" stop-opacity="0.8"/>
</linearGradient>
<linearGradient id="paint1_linear_1_163" x1="212.183" y1="421.786" x2="244.696" y2="356.776" gradientUnits="userSpaceOnUse">
<stop offset="0.9999" stop-color="#FF93F5"/>
<stop offset="1" stop-color="#CEADFF" stop-opacity="0.8"/>
</linearGradient>
<linearGradient id="paint2_linear_1_163" x1="622.588" y1="244.433" x2="369.227" y2="446.03" gradientUnits="userSpaceOnUse">
<stop offset="0.9999" stop-color="#FF93F5"/>
<stop offset="1" stop-color="#CEADFF" stop-opacity="0.8"/>
</linearGradient>
<linearGradient id="paint3_linear_1_163" x1="143.178" y1="244.519" x2="396.54" y2="446.116" gradientUnits="userSpaceOnUse">
<stop offset="0.9999" stop-color="#FF93F5"/>
<stop offset="1" stop-color="#CEADFF" stop-opacity="0.8"/>
</linearGradient>
<linearGradient id="paint4_linear_1_163" x1="515.189" y1="345.609" x2="408.979" y2="277.554" gradientUnits="userSpaceOnUse">
<stop offset="0.9999" stop-color="#FF93F5"/>
<stop offset="1" stop-color="#CEADFF" stop-opacity="0.8"/>
</linearGradient>
<linearGradient id="paint5_linear_1_163" x1="249.979" y1="345.609" x2="356.189" y2="277.554" gradientUnits="userSpaceOnUse">
<stop offset="0.9999" stop-color="#FF93F5"/>
<stop offset="1" stop-color="#CEADFF" stop-opacity="0.8"/>
</linearGradient>
<linearGradient id="paint6_linear_1_163" x1="382.266" y1="91" x2="382.266" y2="438.958" gradientUnits="userSpaceOnUse">
<stop offset="0.00480769" stop-color="#FF2CE9"/>
<stop offset="1" stop-color="#8B8AFF"/>
</linearGradient>
</defs>
</svg>
